<svg width="24" height="24" viewBox="0 0 24 24" fill="none" xmlns="http://www.w3.org/2000/svg">
<path d="M4.00006 19V11.625L3.00006 12.4C2.76672 12.5667 2.51672 12.6333 2.25006 12.6C1.98339 12.5667 1.76672 12.4333 1.60006 12.2C1.43339 11.9667 1.36672 11.7167 1.40006 11.45C1.43339 11.1833 1.55839 10.9667 1.77506 10.8L4.00006 9.1V7C4.00006 6.71667 4.09589 6.47917 4.28756 6.2875C4.47922 6.09583 4.71672 6 5.00006 6C5.28339 6 5.52089 6.09583 5.71256 6.2875C5.90422 6.47917 6.00006 6.71667 6.00006 7V7.575L10.7751 3.925C11.1417 3.64167 11.5501 3.5 12.0001 3.5C12.4501 3.5 12.8584 3.64167 13.2251 3.925L22.2251 10.8C22.4417 10.9667 22.5667 11.1833 22.6001 11.45C22.6334 11.7167 22.5667 11.9667 22.4001 12.2C22.2334 12.4167 22.0167 12.5417 21.7501 12.575C21.4834 12.6083 21.2417 12.5417 21.0251 12.375L20.0001 11.625V19C20.0001 19.55 19.8042 20.0208 19.4126 20.4125C19.0209 20.8042 18.5501 21 18.0001 21H6.00006C5.45006 21 4.97922 20.8042 4.58756 20.4125C4.19589 20.0208 4.00006 19.55 4.00006 19ZM6.00006 19H11.0001V16C11.0001 15.7167 11.0959 15.4792 11.2876 15.2875C11.4792 15.0958 11.7167 15 12.0001 15C12.2834 15 12.5209 15.0958 12.7126 15.2875C12.9042 15.4792 13.0001 15.7167 13.0001 16V19H18.0001V10.1L12.0001 5.525L6.00006 10.1V19ZM5.30006 5C4.91672 5 4.62089 4.84167 4.41256 4.525C4.20422 4.20833 4.19172 3.88333 4.37506 3.55C4.65839 3.06667 5.02922 2.6875 5.48756 2.4125C5.94589 2.1375 6.45006 2 7.00006 2C7.18339 2 7.35839 1.95417 7.52506 1.8625C7.69172 1.77083 7.81672 1.64167 7.90006 1.475C7.98339 1.325 8.09589 1.20833 8.23756 1.125C8.37922 1.04167 8.54172 1 8.72506 1C9.10839 1 9.40006 1.15833 9.60006 1.475C9.80006 1.79167 9.80839 2.11667 9.62506 2.45C9.34172 2.93333 8.97089 3.3125 8.51256 3.5875C8.05422 3.8625 7.55006 4 7.00006 4C6.81672 4 6.64172 4.04167 6.47506 4.125C6.30839 4.20833 6.18339 4.34167 6.10006 4.525C6.01672 4.675 5.90839 4.79167 5.77506 4.875C5.64172 4.95833 5.48339 5 5.30006 5Z" fill="#8490A2"/>
</svg>
