<svg width="24" height="24" viewBox="0 0 24 24" fill="none" xmlns="http://www.w3.org/2000/svg">
<path d="M6 18L3.7 20.3C3.38333 20.6167 3.02083 20.6875 2.6125 20.5125C2.20417 20.3375 2 20.025 2 19.575V4C2 3.45 2.19583 2.97917 2.5875 2.5875C2.97917 2.19583 3.45 2 4 2H20C20.55 2 21.0208 2.19583 21.4125 2.5875C21.8042 2.97917 22 3.45 22 4V16C22 16.55 21.8042 17.0208 21.4125 17.4125C21.0208 17.8042 20.55 18 20 18H6ZM20 16V4H17.5V10.125C17.5 10.325 17.4167 10.4708 17.25 10.5625C17.0833 10.6542 16.9167 10.65 16.75 10.55L15.375 9.725C15.2417 9.64167 15.1167 9.6 15 9.6C14.8833 9.6 14.7583 9.64167 14.625 9.725L13.25 10.55C13.0833 10.65 12.9167 10.6542 12.75 10.5625C12.5833 10.4708 12.5 10.325 12.5 10.125V4H4V17.125L5.15 16H20Z" fill="#8490A2"/>
</svg>
